<svg xmlns="http://www.w3.org/2000/svg" viewBox="0 0 115.94 90.69"><defs><style>.cls-1,.cls-2{fill:#fff;}.cls-2{fill-rule:evenodd;}</style></defs><g id="Layer_2" data-name="Layer 2"><g id="Layer_1-2" data-name="Layer 1"><path class="cls-1" d="M49.87,11.9a11.83,11.83,0,0,0-1.4,6.28,13.7,13.7,0,0,0,.78,5A6.4,6.4,0,0,0,51.19,26a4.82,4.82,0,0,0,2.89.82,4.08,4.08,0,0,0,2.43-.69,5.15,5.15,0,0,0,1.62-2l.54-1.4-.08-.22L58,20.15,57.82,20l-2.31-1.08-.08.65a6.13,6.13,0,0,1-.59,2.08,1,1,0,0,1-.93.53,1.09,1.09,0,0,1-1-.71,8,8,0,0,1-.44-3.31,7.81,7.81,0,0,1,.37-2.86c.39-.92.87-1,1.18-1l.57.21.47.67.41,1.42.44-.11,2.2-.77.49-2,0-.21a7.16,7.16,0,0,0-1.35-2.55,4.18,4.18,0,0,0-3.28-1.35A4.53,4.53,0,0,0,49.87,11.9Zm1.82,13.23a5.33,5.33,0,0,1-1.59-2.38,12.3,12.3,0,0,1-.72-4.57,10.7,10.7,0,0,1,1.24-5.67,3.65,3.65,0,0,1,3.32-1.88,3.31,3.31,0,0,1,2.62,1,6.22,6.22,0,0,1,1.09,2.05c-.08.29-.2.76-.28,1.1l-1.3.45-.2-.64-.76-1L54,13.21c-.6,0-1.45.28-2,1.63a8.79,8.79,0,0,0-.46,3.31A9.26,9.26,0,0,0,52.11,22a2,2,0,0,0,1.8,1.24,1.94,1.94,0,0,0,1.72-1,8.05,8.05,0,0,0,.53-1.87l1.09.52c.1.41.35,1.49.43,1.83s-.36.95-.36.95A4,4,0,0,1,56,25.25a3.31,3.31,0,0,1-2,.54A4,4,0,0,1,51.69,25.13Z"/><path class="cls-1" d="M58.42,11.9l-.72,1.59.87.36.6-1.34a3.7,3.7,0,0,1,3.33-1.88,3.38,3.38,0,0,1,2.63,1,5.6,5.6,0,0,1,1.07,2.05c-.07.29-.19.76-.27,1.1l-1.3.46-.2-.65-.76-1-1.08-.4c-.61,0-1.46.28-2,1.63a9.18,9.18,0,0,0-.45,3.31A9.24,9.24,0,0,0,60.67,22a2,2,0,0,0,1.79,1.24,1.91,1.91,0,0,0,1.72-1,6.46,6.46,0,0,0,.53-1.85c.43.19.88.41,1.1.52.11.41.35,1.5.44,1.84-.08.19-.37.94-.37.94a4,4,0,0,1-1.28,1.61,3.28,3.28,0,0,1-2,.54,4,4,0,0,1-2.38-.66,5.24,5.24,0,0,1-1.6-2.38l-.83.43A6.1,6.1,0,0,0,59.76,26a4.75,4.75,0,0,0,2.87.82,4.11,4.11,0,0,0,2.44-.69,5.19,5.19,0,0,0,1.62-2l.53-1.41-.07-.21-.56-2.39L66.38,20l-2.31-1.08-.09.66a5.83,5.83,0,0,1-.58,2.07,1,1,0,0,1-.94.53,1.09,1.09,0,0,1-1-.71A8.18,8.18,0,0,1,61,18.15a8.2,8.2,0,0,1,.36-2.86c.39-.92.87-1,1.19-1l.56.21.47.67.26.92.16.49.43-.1,2.21-.77.48-2,0-.21a6.69,6.69,0,0,0-1.37-2.56A4.12,4.12,0,0,0,62.5,9.59,4.57,4.57,0,0,0,58.42,11.9Z"/><polygon class="cls-1" points="57.03 18.18 57.18 20.55 58.09 20.4 57.95 18.18 58.2 15.35 57.28 15.15 57.03 18.18"/><polygon class="cls-1" points="65.6 18.18 65.74 20.55 66.66 20.4 66.51 18.18 66.76 15.36 65.85 15.14 65.6 18.18"/><path class="cls-1" d="M67,11.9l-.72,1.57.85.39.62-1.35a3.67,3.67,0,0,1,3.32-1.88,3.34,3.34,0,0,1,2.64,1,5.83,5.83,0,0,1,1.13,2.19s0,.48,0,.85c-.37.14-1.14.4-1.61.56-.11-.31-.2-.64-.2-.64l-.76-1-1.09-.4c-.61,0-1.45.28-2,1.63a8.75,8.75,0,0,0-.47,3.31A9.09,9.09,0,0,0,69.24,22,2,2,0,0,0,71,23.22a1.89,1.89,0,0,0,1.7-1,6.81,6.81,0,0,0,.53-1.87l1.64.78c0,.3.08.65.12.82s-.59,1.71-.59,1.71a4.1,4.1,0,0,1-1.28,1.61,3.34,3.34,0,0,1-2,.53,4,4,0,0,1-2.39-.66,5.33,5.33,0,0,1-1.6-2.38l-.83.43A6.34,6.34,0,0,0,68.32,26a4.9,4.9,0,0,0,2.88.82,4.22,4.22,0,0,0,2.45-.69,5.25,5.25,0,0,0,1.6-2L76,22l0-.11-.19-1.49-.24-.14-2.88-1.35-.08.66A6.13,6.13,0,0,1,72,21.64a1,1,0,0,1-.93.53,1.1,1.1,0,0,1-1-.71,8,8,0,0,1-.43-3.31A8.09,8.09,0,0,1,70,15.29c.4-.92.87-1,1.19-1l.57.21.47.67.39,1.42.45-.11,2.7-1V13.7a7,7,0,0,0-1.39-2.77,4.2,4.2,0,0,0-3.28-1.34A4.54,4.54,0,0,0,67,11.9Z"/><path class="cls-1" d="M84.76,9.85H81.24V19.94a3.19,3.19,0,0,1-.36,1.7.93.93,0,0,1-.86.49.92.92,0,0,1-.86-.49,3.19,3.19,0,0,1-.36-1.7V9.85h-4V13.7h.92V10.9h2.14v9a4.54,4.54,0,0,0,.53,2.31,1.85,1.85,0,0,0,1.62.93h0a1.79,1.79,0,0,0,1.61-.93,4.32,4.32,0,0,0,.53-2.31v-9H84.3v8.81l-.25,2.5a6.31,6.31,0,0,1-.79,2,3.7,3.7,0,0,1-1.06,1.14,3.84,3.84,0,0,1-1.94.46l-1.5-.15a2.7,2.7,0,0,1-1.24-.54l-.93-1.22L76,22.25c0-.15-.06-.37-.06-.37l-.84.59.71,2L77,25.94a3.44,3.44,0,0,0,1.63.73l1.65.17a4.61,4.61,0,0,0,2.36-.58A4.36,4.36,0,0,0,84,24.8,7.79,7.79,0,0,0,85,22.48l.27-2.77V9.85Z"/><polygon class="cls-1" points="74.81 15.11 74.81 19.71 74.88 20.8 75.79 20.69 75.73 19.71 75.73 15.11 74.81 15.11"/><path class="cls-1" d="M88.58,9.85H85.35V26.58H89V9.85Zm-.46,1.05V25.52H86.28V10.9Z"/><path class="cls-2" d="M111.75,38.63c-.76,0-.66-3.36-.66-3.36l1.1-.12c1.07-.13,2.37-2.62,3.14-4.74s.86-3.12,0-4.5-3.81.26-3.81.26a5.43,5.43,0,0,1-1.29-1.74c-.87-1.49,1.19-1.13,1.4-1.62s.66-4.37.77-5a11.67,11.67,0,0,0-.11-4.74c-.54-2-3.36-.26-4.55,2.12a5.08,5.08,0,0,1-1.42-2.62,7.71,7.71,0,0,0,1.73-3.24,20.69,20.69,0,0,0-.86-6.86c-.33-2-3.26-.11-4.23,1-.44,0-1.53-1.11-2.62-2.36s-3.15.11-4.12,1.36c-.44.88,1.84,4.61,5.32,8.62a2.24,2.24,0,0,0-.65,2.34c0,.76,3,5.62,4.77,7.86-.32.63-1.08,1.75-.86,2.49a78.86,78.86,0,0,0,3.57,8.73c-.75.5-1.83-.37-2.38.5s-.12,5.6.55,6.6,0,2.62,0,2.62,0,.5-1.52.36c-2.18.89-2.39,6.62-2.18,10.36-3.81-1.13-3.69,2.11-4,3.36s-1.64,5.85-1.64,5.85H95.57c-1.63,0-2.94,3.49-3.91,6.37-.71,1.25,0,3.16.08,3.42-.06,0-.27.07-1.07.82,0,0,0-.26-1.72-1.26-2.51-.38-3.71,3.25-5.12,4.87A5.18,5.18,0,0,0,83.19,80s0,.13-1.63.63a2.55,2.55,0,0,0-3.81-2.12c-3.14,1.11-5,6-5,6s0,.13-1-.11c-1-3.61-4.47-1.37-8.92,1.5-3.8-5.48-6.95-2.37-9.88,0-1.19.13-5.43-3.62-7.16-3.74s-2.28,2.35-2.28,2.35h-.88V83.37a2.91,2.91,0,0,0-1.19-2S38.33,78,36.81,77.77s-3.15,2.37-3.15,2.37,0,.38-.87.12-.33-1-.33-2.12-3.36-6.36-4.78-7S24.76,73,24.76,73l-1-.5c0-.87.78-1.86.44-2.87s-2.72-7.59-2.72-7.59l-2.16.11.21,1.14a1.59,1.59,0,0,0-.65.24c-.44.25-1.52-1.49-1.52-1.49l.75-1s-.75-4.37-1.4-6.61-2.39-1.49-3.15-.87c-.66.37-.44-1.24-.22-2.49s-.44-4.24-1.09-6.48c-.11-2.37-1.62-2.13-3-3a36.56,36.56,0,0,1,1-6.36c.53-1.86-.34-2.62-1-2.74s-1.84-.37-1.41-1.25a48.61,48.61,0,0,0,3.26-6A3.6,3.6,0,0,0,10,21.07c-.87-.63-1.08-.12.54-.63,2-.87,4.13-6.23,4.24-7.35a1.19,1.19,0,0,0-.66-1.37l.23-.87c2.17-.26,3.47-3.62,4.24-5.11a6.79,6.79,0,0,0,.65-3.49C18-.37,16.61.25,13.67,3.87,13.35,3.49,12,1.5,10.52,1.75,8,2,8.25,5,8.15,8.47S9.77,12.1,9.77,12.1s-.55,1.49-1.09,2.61C8.47,14,7.05,12.1,5.2,12.35c-1.72.48-1.95,5.48-1.51,7.85a4.61,4.61,0,0,0,2.6,3.23,9.7,9.7,0,0,1-1.2,2.88c-.75.11-1.19-.76-3.58-1.14-2.93,1-.87,5.24.11,7.73C2.27,34,2.93,35,4.23,35s1.19,2.87,1.19,2.87-.33,0-.33,1.12c-2.28-1.37-5-1.12-5,1.25s4.67,6.6,6.41,7.1C8.25,46,8.15,49.85,8.15,49.85l-.77.25c-3.9-1.37-3.37,1.49-2.93,3S9,58.33,10.31,58a5.13,5.13,0,0,1,2.06-.24l.22,2.49c-3.37-.63-3,.25-3,2.74s3.14,4.1,5.21,5a2.26,2.26,0,0,0,2.72-.52s.21,0,1.85,2.38a2.89,2.89,0,0,0-2.51,3.49c.32,2.74,4.57,3.24,6.63,4.24a3.63,3.63,0,0,0,2.5-.88l2.49,3.25c-1.62-.13-2.49.25-2.38,2.48S29,85,30.73,85.12s4-.13,4.45-1.25c1.31-1.13,2.17,1.12,2.06,1.75-.43.61-2.39,1.24-.75,3.6,2.82,2.88,7.86.64,9.66-.62.11,1,5.11,1.75,5.65,1.37,0,0,2.93-2.48,5.1-4.72s4.24,2.11,6,3.86c.22.61,1.74,1.24,2.61,1.24s1.62-1.24,3.15-1.62,1.51.38,2.83,1.62a18.68,18.68,0,0,0,6.29.13c2.72-.62,1.53-3.62,1.09-4.25s-.45-1.75,1.53-2.86c.2,2,5.42,2,7.92,1.37s1.3-4,.22-4.1c-1.31-.25,0-2.12.21-2.87A24.61,24.61,0,0,1,90.9,74.4,3.68,3.68,0,0,1,90.67,76c-.31,1.25,1,1.62,2,1.62s4.13-1.49,5.43-2.49.65-3.49-.87-4.86c-1.3-1.5.12-2.36,1.3-2.61a2.47,2.47,0,0,0,2.51.25c1.41-.52,4.66-2.88,5.21-4.61.87-2.75-1.3-3.25-3.37-3-.87-1.25,1.2-2.5,2.38-2.61a13.1,13.1,0,0,0,4.35-2c1.42-.87,1.63-1.75,2.18-3.5.32-2.36-1.74-2.36-3.59-2.23-1.19,0-.87-1.49-.22-2.25s2.39-.63,3.48-1.12,3-3,4-4.61,0-2.5-.33-3.62S113.05,38.38,111.75,38.63ZM2.16,27.54c.77,0,2.49,2.12,2.49,5.73C4.65,33.27,2.06,30.66,2.16,27.54ZM13.24,7.36s4-6.12,4.13-3.73a45.71,45.71,0,0,1-3,5.47S12.91,8.61,13.24,7.36ZM9.43,9.48c0-1.26.55-6.37,1.53-5.36a21.48,21.48,0,0,1,.43,5.11,4.67,4.67,0,0,1-.54,1.62S9.43,10.73,9.43,9.48Zm3.48,2.74c.44.13.66,1.73.11,2.36s-2.93,3.74-2.93,3.74-1.52.12-1.62-.37C8.33,17.3,11.93,12.1,12.91,12.22ZM6.06,21.44s-1.29-4.87-.42-6.61c.87-1,1.52.87,1.52,1.74v3.87Zm3.71,1.5c.44,1.74-1.09,5.72-1.85,6.34s-2.39-.74-2.39-.74S8.79,21.19,9.77,22.94ZM6.4,45c-1.31-.62-3.59-3.24-3.69-4.37,1.42,0,3.47,2.5,4,3.12S7.7,45.6,6.4,45Zm1.75-4.86c-.45,1.24-2,.13-2-.36,0-1.51.22-5.87,2.29-5.62A15.87,15.87,0,0,1,8.15,40.13Zm2.27,16.45A3.91,3.91,0,0,1,8.9,55.21,20.45,20.45,0,0,0,6,52.35c-.33-.63.09-1.13,1-.88s2.28,2.37,3.7,3.37S10.42,56.58,10.42,56.58Zm0-5.11c-.65-1-2.17-6.48-.65-7.47.75.11,1.84,3.86,2,4.61s.32,2.23.32,2.23S11.07,52.47,10.42,51.47Zm2.82,3.37c.33-1.12,1.85-.63,2,.37s1.62,4.74,1.62,5.24-.86,2.37-2,1.12C14.87,61.57,12.91,56,13.24,54.84Zm3.37,12.08s0-.14,0-.35a1.72,1.72,0,0,0-.39-.14c-1.21-.38-4.46-2.49-4.89-3.87.75-.88,4.34,1,4.78,2a8.93,8.93,0,0,1,.5,2C17.17,66.84,16.61,66.92,16.61,66.92Zm2-2.25c0-.73,1.3-.62,1.51.25a44.32,44.32,0,0,0,2.61,4.87s-.65,2.11-1.3,1.49C21.39,71.28,18.57,65.43,18.57,64.67Zm5.2,11.1a45.54,45.54,0,0,1-5.1-2.24,1.21,1.21,0,0,1-.44-1.24s6.2,1.49,6.2,2.49S25,76.27,23.77,75.77ZM26.49,74c-.21-.75,1-1.24,1.42-.62s2.16,3,2.16,3,1.19.87,1.19,1.37S30,79.63,30,79.63,26.71,74.78,26.49,74Zm7.17,9.22c-.65.12-5,.12-5.32-.37s.32-1.37.32-1.37,4,0,4.45.49S34.31,83.12,33.66,83.25Zm2.39-2c-1-1-.33-2,.44-1.63s4.34,2.37,4.45,3.49.44,1.49-.43,1.36S37,82.25,36.05,81.26Zm7.61,7.22c-1.09,0-4.9.37-5.33-.25s-.87-1.11-.11-1.11,5.22-.38,5.44.24S44.74,88.48,43.66,88.48Zm7.05.25a18,18,0,0,1-5-3.48c-.65-.88,0-1.38.65-1.13s4.66,2.5,4.66,3S51.69,89,50.71,88.73Zm15.75-.63c.44-.49-2.5.5-2.07-.49s5.32-4.24,5.55-3S66,88.6,66.46,88.1ZM76.89,89c-.89,0-4,.24-4.56-.25s-.22-1.87.21-2c1.67-.48,5.43.25,5.43.87S77.75,89,76.89,89Zm2.82-7.35c-.55.37-2,2.61-3.15,3s-3.16,0-2-1,4-4.48,5-3.73S80.25,81.26,79.71,81.63Zm7.6,1.62a8.61,8.61,0,0,1-4.34.12c-1-.37-1.74-1.37-.86-1.49s5.74-1.12,5.74-.13S88.72,82.88,87.31,83.25Zm2.07-8.73c-.76.76-3.59,5.24-3.59,5.24s-1.63-1.12-1.09-2.12c.67-1.24,2.83-4.61,3.69-4.49S90.14,73.78,89.38,74.52ZM97,73c.1,1.49-.32,1.12-1,1.49s-4.23,1.63-4.23,1.63-1.31-.75,0-1.5S96.87,71.53,97,73Zm-.44-7.22c-.44.75-1.84,6-1.84,6s-2.17-.37-1.64-1.62,1.75-5.74,2.61-5.74S97,65.05,96.54,65.81ZM101.64,55c.66-.24.66-.24.66,1s-.43,5-1.2,5.61-1.95.61-1.84-.87S101,55.21,101.64,55Zm2.62,7c.43.62.86,1.12.21,1.62s-2.38,2.37-3.7,2.74-2.81-.12-1.94-1.38C98.83,64.92,103.82,61.31,104.26,61.94ZM111,32.53c.43-1.12,2-5.24,2.49-5.49s.76,1,.54,1.62-1.08,3.75-1.83,4.37S110.55,33.65,111,32.53Zm-1.31-17.44c.55-1,.87-.64.87.24v5.36c0,1-1,1.74-1.19.62S109.14,16.08,109.68,15.09ZM104.8,4.48c.54-.49.76-.74.86-.12a46.33,46.33,0,0,1,.88,4.87A3.24,3.24,0,0,1,106,11s-1.08,1-1.08-.38S104.26,5,104.8,4.48Zm-6.19-.74c.22-.63.76-.75,1.63.13a15.09,15.09,0,0,1,2.17,2.61c.22.5,1.19,3.12-.44,1.87S98.39,4.36,98.61,3.74Zm7.16,15.08c-.43-.76-3.25-4.73-3.14-5.48s.86-1.12,1.41-.38,1.73,2.5,2.28,3.12a10.92,10.92,0,0,1,1.19,2.24S106.21,19.57,105.77,18.82Zm.77,4.85c0-.73,1-1.24,1.3-.37s2.06,3.49,2.17,4.36a6.49,6.49,0,0,1-.11,1.88l-1.3-.11A48.41,48.41,0,0,1,106.54,23.67ZM104,50.47c.51-1.38,1.08-5,1.4-5.48s1.42-1.61,1.42-.62.22,3.24-.22,4a21.76,21.76,0,0,0-1.08,3.12S103.71,51.35,104,50.47Zm5.75,1.37a2.13,2.13,0,0,1-1.08,2.25c-.55.37-2.94,2.24-2.94,2.24s-2.06.5-1.19-.75S109.57,50.59,109.79,51.84Zm-1.63-11.22s-1.19-5.24-.87-6,1-1.75,1.31-.5.86,5.23,1.08,6.11S108.16,40.62,108.16,40.62Zm5.65.26c-.44,1.12-1.52,3.49-2.72,4s-2.28.5-1.52-.63,3.8-4.24,3.8-4.24S114.24,39.77,113.81,40.88Z"/><path class="cls-2" d="M60.08,25.73H47.83v3.41s-3.79-2.94-4-3.56-1.49-.62-2.56.15-.67,5-.67,5l4.72,9.14v1.38s-10-4-13-5.72c0,0-3-6-3-6.81s5.41-.31,6.22-.47,0-2.63,0-2.63-7.15.62-8.24-.62c-.39-2.33-3.24-6.34-5.26-6.65-3.76,1.23,1.36,17.79,2.57,24,0,0,8.23,8.36,11.34,10.69a3.1,3.1,0,0,1,1.35,4.17L31,71.62H49.3l6.21-27L49.72,34.09s-.42-3.7-.42-4.64a3.9,3.9,0,0,1,1-2h9.83"/><path class="cls-2" d="M49.54,13.05l1.08-.94-.28-.76S50.22,2.84,49.67.83s-3.5.3-3.5.3S46,6.7,46,11A3.6,3.6,0,0,0,49.54,13.05Z"/><rect class="cls-1" x="47.78" y="25.12" width="41.01" height="3.45"/><path class="cls-2" d="M66,34,60.18,44.55l6.21,27H84.72L78.39,57.08a3.1,3.1,0,0,1,1.34-4.18c3.1-2.31,11.34-10.67,11.34-10.67,1.22-6.2,6.33-22.76,2.56-24-2,.3-4.85,4.32-5.26,6.64-1.09,1.24-8.23.62-8.23.62v2.63c.82.16,6.21-.16,6.21.46,0,.78-3,6.81-3,6.81-3,1.71-12.95,5.72-12.95,5.72V39.75l4.73-9.12s.39-4.19-.68-5-2.3-.77-2.57-.15a35.85,35.85,0,0,1-3.75,3.67Z"/></g></g></svg>